<svg xmlns:xlink="http://www.w3.org/1999/xlink" width="26" xmlns="http://www.w3.org/2000/svg" height="26" id="screenshot-75e9a3ac-1e8d-809d-8003-5972e7e78681" viewBox="-1 -1 26 26" style="-webkit-print-color-adjust: exact;" fill="none" version="1.1"><g id="shape-75e9a3ac-1e8d-809d-8003-5972e7e78681" width="24" class="feather feather-trash-2" height="24" rx="0" ry="0" style="fill: rgb(0, 0, 0);"><g id="shape-75e9a3ac-1e8d-809d-8003-5972e7e78685"><g class="fills" id="fills-75e9a3ac-1e8d-809d-8003-5972e7e78685"><path fill="none" stroke-linecap="round" stroke-linejoin="round" rx="0" ry="0" d="M3.000,6.000L5.000,6.000L21.000,6.000" style="fill: none;"/></g><g id="strokes-75e9a3ac-1e8d-809d-8003-5972e7e78685" class="strokes"><g class="stroke-shape"><path stroke-linecap="round" stroke-linejoin="round" rx="0" ry="0" d="M3.000,6.000L5.000,6.000L21.000,6.000" style="fill: none; stroke-width: 2; stroke: rgb(186, 24, 27); stroke-opacity: 1;"/></g></g></g><g id="shape-75e9a3ac-1e8d-809d-8003-5972e7e78686"><g class="fills" id="fills-75e9a3ac-1e8d-809d-8003-5972e7e78686"><path fill="none" stroke-linecap="round" stroke-linejoin="round" rx="0" ry="0" d="M19.000,6.000L19.000,20.000C19.000,21.105,18.105,22.000,17.000,22.000L7.000,22.000C5.895,22.000,5.000,21.105,5.000,20.000L5.000,6.000M8.000,6.000L8.000,4.000C8.000,2.895,8.895,2.000,10.000,2.000L14.000,2.000C15.105,2.000,16.000,2.895,16.000,4.000L16.000,6.000" style="fill: none;"/></g><g id="strokes-75e9a3ac-1e8d-809d-8003-5972e7e78686" class="strokes"><g class="stroke-shape"><path stroke-linecap="round" stroke-linejoin="round" rx="0" ry="0" d="M19.000,6.000L19.000,20.000C19.000,21.105,18.105,22.000,17.000,22.000L7.000,22.000C5.895,22.000,5.000,21.105,5.000,20.000L5.000,6.000M8.000,6.000L8.000,4.000C8.000,2.895,8.895,2.000,10.000,2.000L14.000,2.000C15.105,2.000,16.000,2.895,16.000,4.000L16.000,6.000" style="fill: none; stroke-width: 2; stroke: rgb(186, 24, 27); stroke-opacity: 1;"/></g></g></g><g id="shape-75e9a3ac-1e8d-809d-8003-5972e7e78687"><g class="fills" id="fills-75e9a3ac-1e8d-809d-8003-5972e7e78687"><path fill="none" stroke-linejoin="round" stroke-linecap="round" rx="0" ry="0" d="M10.000,11.000L10.000,17.000" style="fill: none;"/></g><g id="strokes-75e9a3ac-1e8d-809d-8003-5972e7e78687" class="strokes"><g class="stroke-shape"><path stroke-linejoin="round" stroke-linecap="round" rx="0" ry="0" d="M10.000,11.000L10.000,17.000" style="fill: none; stroke-width: 2; stroke: rgb(186, 24, 27); stroke-opacity: 1;"/></g></g></g><g id="shape-75e9a3ac-1e8d-809d-8003-5972e7e78688"><g class="fills" id="fills-75e9a3ac-1e8d-809d-8003-5972e7e78688"><path fill="none" stroke-linejoin="round" stroke-linecap="round" rx="0" ry="0" d="M14.000,11.000L14.000,17.000" style="fill: none;"/></g><g id="strokes-75e9a3ac-1e8d-809d-8003-5972e7e78688" class="strokes"><g class="stroke-shape"><path stroke-linejoin="round" stroke-linecap="round" rx="0" ry="0" d="M14.000,11.000L14.000,17.000" style="fill: none; stroke-width: 2; stroke: rgb(186, 24, 27); stroke-opacity: 1;"/></g></g></g></g></svg>